<?xml version="1.0" encoding="UTF-8"?>
<svg width="24px" height="24px" viewBox="0 0 24 24" version="1.1" xmlns="http://www.w3.org/2000/svg" xmlns:xlink="http://www.w3.org/1999/xlink">
    <!-- Generator: Sketch 62 (91390) - https://sketch.com -->
    <title>looking_for</title>
    <desc>Created with Sketch.</desc>
    <g id="looking_for" stroke="none" stroke-width="1" fill="none" fill-rule="evenodd">
        <g id="contact_mail-24px">
            <polygon id="Path" points="0 0 24 0 24 24 0 24"></polygon>
            <polygon id="Path" points="0 0 24 0 24 24 0 24"></polygon>
            <g id="Group-15" transform="translate(0.000000, 6.000000)" fill="#111637" fill-rule="nonzero">
                <path d="M6.85714286,-1.81188398e-13 C8.75428571,-1.81188398e-13 10.2857143,1.53142857 10.2857143,3.42857143 C10.2857143,5.32571429 8.75428571,6.85714286 6.85714286,6.85714286 C4.96,6.85714286 3.42857143,5.32571429 3.42857143,3.42857143 C3.42857143,1.53142857 4.96,-1.81188398e-13 6.85714286,-1.81188398e-13 Z M13.7142857,13.7142857 L-1.03840746e-12,13.7142857 L-1.03840746e-12,12.5714286 C-1.03840746e-12,10.2857143 4.57142857,9.02857143 6.85714286,9.02857143 C9.14285714,9.02857143 13.7142857,10.2857143 13.7142857,12.5714286 L13.7142857,13.7142857 Z M22.8571429,6.85714286 L13.7142857,6.85714286 L22.8571429,6.85714286 Z" id="Shape"></path>
                <path d="M12.5714286,8 L22.8571429,8 L22.8571429,5.71428571 L12.5714286,5.71428571 L12.5714286,8 Z M16,12.5714286 L22.8571429,12.5714286 L22.8571429,10.2857143 L16,10.2857143 L16,12.5714286 Z M12.5714286,1.14285714 L12.5714286,3.42857143 L22.8571429,3.42857143 L22.8571429,1.14285714 L12.5714286,1.14285714 Z" id="Shape"></path>
            </g>
        </g>
    </g>
</svg>